# xmcd CD database file
#
# Track frame offsets:
#	150
#	22669
#	46201
#	67729
#	88481
#	110218
#	129388
#	150750
#	172929
#	194519
#	219906
#	225069
#
# Disc length: 3302 seconds
#
# Revision: 8
# Processed by: cddbd v1.4PL0 Copyright (c) Steve Scherf et al.
# Submitted via: CDex 1.40Release
#
DISCID=880ce40c
DTITLE=Utada Hikaru - Deep River
DYEAR=2002
DGENRE=R&B
TTITLE0=SAKURA drops
TTITLE1=traveling
TTITLE2=Shiawase ni narou
TTITLE3=Deep River
TTITLE4=Letters
TTITLE5=Play Ball
TTITLE6=Tokyo NIGHTS
TTITLE7=A.S.A.P.
TTITLE8=Uso mitai na I Love You
TTITLE9=FINAL DISTANCE
TTITLE10=Bridge (Interlude)
TTITLE11=Hikari
EXTD=YEAR: 2002 ID3G: 14
EXTT0=
EXTT1=
EXTT2=
EXTT3=
EXTT4=
EXTT5=
EXTT6=
EXTT7=
EXTT8=
EXTT9=
EXTT10=
EXTT11=
PLAYORDER=
